<?xml version="1.0" encoding="utf-8"?>
<!-- Generator: Adobe Illustrator 27.7.0, SVG Export Plug-In . SVG Version: 6.00 Build 0)  -->
<svg version="1.1" id="레이어_1" xmlns="http://www.w3.org/2000/svg" xmlns:xlink="http://www.w3.org/1999/xlink" x="0px"
	 y="0px" viewBox="0 0 157 157" style="enable-background:new 0 0 157 157;" xml:space="preserve">
<style type="text/css">
	.st0{fill:#FFFFFF;}
</style>
<g>
	<g>
		<path class="st0" d="M78.1,147.1c-1.8,0-3.7-0.7-5.1-2.1l-0.8-0.8c-2.8-2.8-2.8-7.4,0-10.2c2.8-2.8,7.4-2.8,10.2,0l0.8,0.8
			c2.8,2.8,2.8,7.4,0,10.2C81.8,146.4,79.9,147.1,78.1,147.1z M62.9,131.9c-1.8,0-3.7-0.7-5.1-2.1l-0.8-0.8c-2.8-2.8-2.8-7.4,0-10.2
			c2.8-2.8,7.4-2.8,10.2,0l0.8,0.8c2.8,2.8,2.8,7.4,0,10.2C66.5,131.2,64.7,131.9,62.9,131.9z M47.6,116.6c-1.8,0-3.7-0.7-5.1-2.1
			l-0.8-0.8c-2.8-2.8-2.8-7.4,0-10.2c2.8-2.8,7.4-2.8,10.2,0l0.8,0.8c2.8,2.8,2.8,7.4,0,10.2C51.3,115.9,49.4,116.6,47.6,116.6z
			 M32.3,101.4c-1.8,0-3.7-0.7-5.1-2.1l-0.8-0.8c-2.8-2.8-2.8-7.4,0-10.2c2.8-2.8,7.4-2.8,10.2,0l0.8,0.8c2.8,2.8,2.8,7.4,0,10.2
			C36,100.7,34.2,101.4,32.3,101.4z M17.1,86.1c-1.8,0-3.7-0.7-5.1-2.1l-0.8-0.8c-2.8-2.8-2.8-7.4,0-10.2c2.8-2.8,7.4-2.8,10.2,0
			l0.8,0.8c2.8,2.8,2.8,7.4,0,10.2C20.8,85.4,18.9,86.1,17.1,86.1z M29.9,70.9c-1.8,0-3.7-0.7-5.1-2.1c-2.8-2.8-2.8-7.4,0-10.2
			l0.8-0.8c2.8-2.8,7.4-2.8,10.2,0c2.8,2.8,2.8,7.4,0,10.2L35,68.8C33.6,70.2,31.7,70.9,29.9,70.9z M45.1,55.6
			c-1.8,0-3.7-0.7-5.1-2.1c-2.8-2.8-2.8-7.4,0-10.2l0.8-0.8c2.8-2.8,7.4-2.8,10.2,0c2.8,2.8,2.8,7.4,0,10.2l-0.8,0.8
			C48.8,54.9,47,55.6,45.1,55.6z M60.4,40.4c-1.8,0-3.7-0.7-5.1-2.1c-2.8-2.8-2.8-7.4,0-10.2l0.8-0.8c2.8-2.8,7.4-2.8,10.2,0
			c2.8,2.8,2.8,7.4,0,10.2l-0.8,0.8C64.1,39.7,62.2,40.4,60.4,40.4z M75.6,25.1c-1.8,0-3.7-0.7-5.1-2.1c-2.8-2.8-2.8-7.4,0-10.2
			l0.8-0.8c2.8-2.8,7.4-2.8,10.2,0c2.8,2.8,2.8,7.4,0,10.2L80.7,23C79.3,24.4,77.5,25.1,75.6,25.1z"/>
	</g>
	<g>
		<path class="st0" d="M140.8,147.1c-1.8,0-3.7-0.7-5.1-2.1l-0.8-0.8c-2.8-2.8-2.8-7.4,0-10.2c2.8-2.8,7.4-2.8,10.2,0l0.8,0.8
			c2.8,2.8,2.8,7.4,0,10.2C144.4,146.4,142.6,147.1,140.8,147.1z M125.5,131.9c-1.8,0-3.7-0.7-5.1-2.1l-0.8-0.8
			c-2.8-2.8-2.8-7.4,0-10.2c2.8-2.8,7.4-2.8,10.2,0l0.8,0.8c2.8,2.8,2.8,7.4,0,10.2C129.2,131.2,127.3,131.9,125.5,131.9z
			 M110.2,116.6c-1.8,0-3.7-0.7-5.1-2.1l-0.8-0.8c-2.8-2.8-2.8-7.4,0-10.2c2.8-2.8,7.4-2.8,10.2,0l0.8,0.8c2.8,2.8,2.8,7.4,0,10.2
			C113.9,115.9,112.1,116.6,110.2,116.6z M95,101.4c-1.8,0-3.7-0.7-5.1-2.1l-0.8-0.8c-2.8-2.8-2.8-7.4,0-10.2
			c2.8-2.8,7.4-2.8,10.2,0l0.8,0.8c2.8,2.8,2.8,7.4,0,10.2C98.7,100.7,96.8,101.4,95,101.4z M79.7,86.1c-1.8,0-3.7-0.7-5.1-2.1
			l-0.8-0.8c-2.8-2.8-2.8-7.4,0-10.2c2.8-2.8,7.4-2.8,10.2,0l0.8,0.8c2.8,2.8,2.8,7.4,0,10.2C83.4,85.4,81.6,86.1,79.7,86.1z
			 M92.5,70.9c-1.8,0-3.7-0.7-5.1-2.1c-2.8-2.8-2.8-7.4,0-10.2l0.8-0.8c2.8-2.8,7.4-2.8,10.2,0c2.8,2.8,2.8,7.4,0,10.2l-0.8,0.8
			C96.2,70.2,94.4,70.9,92.5,70.9z M107.8,55.6c-1.8,0-3.7-0.7-5.1-2.1c-2.8-2.8-2.8-7.4,0-10.2l0.8-0.8c2.8-2.8,7.4-2.8,10.2,0
			c2.8,2.8,2.8,7.4,0,10.2l-0.8,0.8C111.5,54.9,109.6,55.6,107.8,55.6z M123,40.4c-1.8,0-3.7-0.7-5.1-2.1c-2.8-2.8-2.8-7.4,0-10.2
			l0.8-0.8c2.8-2.8,7.4-2.8,10.2,0c2.8,2.8,2.8,7.4,0,10.2l-0.8,0.8C126.7,39.7,124.9,40.4,123,40.4z M138.3,25.1
			c-1.8,0-3.7-0.7-5.1-2.1c-2.8-2.8-2.8-7.4,0-10.2l0.8-0.8c2.8-2.8,7.4-2.8,10.2,0c2.8,2.8,2.8,7.4,0,10.2l-0.8,0.8
			C142,24.4,140.1,25.1,138.3,25.1z"/>
	</g>
</g>
</svg>
