<?xml version="1.0" encoding="utf-8"?>
<!-- Generator: Adobe Illustrator 27.7.0, SVG Export Plug-In . SVG Version: 6.00 Build 0)  -->
<svg version="1.1" id="레이어_1" xmlns="http://www.w3.org/2000/svg" xmlns:xlink="http://www.w3.org/1999/xlink" x="0px"
	 y="0px" viewBox="0 0 157 157" style="enable-background:new 0 0 157 157;" xml:space="preserve">
<style type="text/css">
	.st0{fill:#FFFFFF;}
</style>
<g>
	<g>
		<path class="st0" d="M73.8,145c-2.8-2.8-2.8-7.4,0-10.2l0.8-0.8c2.8-2.8,7.4-2.8,10.2,0c2.8,2.8,2.8,7.4,0,10.2L84,145
			c-1.4,1.4-3.2,2.1-5.1,2.1S75.2,146.4,73.8,145z M89.1,129.8c-2.8-2.8-2.8-7.4,0-10.2l0.8-0.8c2.8-2.8,7.4-2.8,10.2,0
			c2.8,2.8,2.8,7.4,0,10.2l-0.8,0.8c-1.4,1.4-3.2,2.1-5.1,2.1S90.5,131.2,89.1,129.8z M104.3,114.5c-2.8-2.8-2.8-7.4,0-10.2l0.8-0.8
			c2.8-2.8,7.4-2.8,10.2,0c2.8,2.8,2.8,7.4,0,10.2l-0.8,0.8c-1.4,1.4-3.2,2.1-5.1,2.1S105.7,115.9,104.3,114.5z M119.6,99.3
			c-2.8-2.8-2.8-7.4,0-10.2l0.8-0.8c2.8-2.8,7.4-2.8,10.2,0c2.8,2.8,2.8,7.4,0,10.2l-0.8,0.8c-1.4,1.4-3.2,2.1-5.1,2.1
			S121,100.7,119.6,99.3z M134.8,84c-2.8-2.8-2.8-7.4,0-10.2l0.8-0.8c2.8-2.8,7.4-2.8,10.2,0c2.8,2.8,2.8,7.4,0,10.2L145,84
			c-1.4,1.4-3.2,2.1-5.1,2.1C138.1,86.1,136.2,85.4,134.8,84z M122,68.8l-0.8-0.8c-2.8-2.8-2.8-7.4,0-10.2c2.8-2.8,7.4-2.8,10.2,0
			l0.8,0.8c2.8,2.8,2.8,7.4,0,10.2c-1.4,1.4-3.2,2.1-5.1,2.1S123.4,70.2,122,68.8z M106.8,53.5l-0.8-0.8c-2.8-2.8-2.8-7.4,0-10.2
			c2.8-2.8,7.4-2.8,10.2,0l0.8,0.8c2.8,2.8,2.8,7.4,0,10.2c-1.4,1.4-3.2,2.1-5.1,2.1S108.2,54.9,106.8,53.5z M91.5,38.2l-0.8-0.8
			c-2.8-2.8-2.8-7.4,0-10.2c2.8-2.8,7.4-2.8,10.2,0l0.8,0.8c2.8,2.8,2.8,7.4,0,10.2c-1.4,1.4-3.2,2.1-5.1,2.1
			C94.8,40.4,92.9,39.7,91.5,38.2z M76.3,23l-0.8-0.8c-2.8-2.8-2.8-7.4,0-10.2c2.8-2.8,7.4-2.8,10.2,0l0.8,0.8
			c2.8,2.8,2.8,7.4,0,10.2c-1.4,1.4-3.2,2.1-5.1,2.1S77.7,24.4,76.3,23z"/>
	</g>
	<g>
		<path class="st0" d="M11.2,145c-2.8-2.8-2.8-7.4,0-10.2L12,134c2.8-2.8,7.4-2.8,10.2,0c2.8,2.8,2.8,7.4,0,10.2l-0.8,0.8
			c-1.4,1.4-3.2,2.1-5.1,2.1S12.6,146.4,11.2,145z M26.4,129.8c-2.8-2.8-2.8-7.4,0-10.2l0.8-0.8c2.8-2.8,7.4-2.8,10.2,0
			c2.8,2.8,2.8,7.4,0,10.2l-0.8,0.8c-1.4,1.4-3.2,2.1-5.1,2.1C29.7,131.9,27.8,131.2,26.4,129.8z M41.7,114.5
			c-2.8-2.8-2.8-7.4,0-10.2l0.8-0.8c2.8-2.8,7.4-2.8,10.2,0c2.8,2.8,2.8,7.4,0,10.2l-0.8,0.8c-1.4,1.4-3.2,2.1-5.1,2.1
			C44.9,116.6,43.1,115.9,41.7,114.5z M56.9,99.3c-2.8-2.8-2.8-7.4,0-10.2l0.8-0.8c2.8-2.8,7.4-2.8,10.2,0c2.8,2.8,2.8,7.4,0,10.2
			l-0.8,0.8c-1.4,1.4-3.2,2.1-5.1,2.1C60.2,101.4,58.3,100.7,56.9,99.3z M72.2,84c-2.8-2.8-2.8-7.4,0-10.2L73,73
			c2.8-2.8,7.4-2.8,10.2,0c2.8,2.8,2.8,7.4,0,10.2L82.3,84c-1.4,1.4-3.2,2.1-5.1,2.1S73.6,85.4,72.2,84z M59.4,68.8l-0.8-0.8
			c-2.8-2.8-2.8-7.4,0-10.2c2.8-2.8,7.4-2.8,10.2,0l0.8,0.8c2.8,2.8,2.8,7.4,0,10.2c-1.4,1.4-3.2,2.1-5.1,2.1S60.8,70.2,59.4,68.8z
			 M44.1,53.5l-0.8-0.8c-2.8-2.8-2.8-7.4,0-10.2c2.8-2.8,7.4-2.8,10.2,0l0.8,0.8c2.8,2.8,2.8,7.4,0,10.2c-1.4,1.4-3.2,2.1-5.1,2.1
			S45.5,54.9,44.1,53.5z M28.9,38.2L28,37.4c-2.8-2.8-2.8-7.4,0-10.2s7.4-2.8,10.2,0l0.8,0.8c2.8,2.8,2.8,7.4,0,10.2
			c-1.4,1.4-3.2,2.1-5.1,2.1C32.1,40.4,30.3,39.7,28.9,38.2z M13.6,23l-0.8-0.8c-2.8-2.8-2.8-7.4,0-10.2c2.8-2.8,7.4-2.8,10.2,0
			l0.8,0.8c2.8,2.8,2.8,7.4,0,10.2c-1.4,1.4-3.2,2.1-5.1,2.1S15,24.4,13.6,23z"/>
	</g>
</g>
</svg>
